# This file uses centimeters as units for non-parametric coordinates.

mtllib GroundTest.mtl
g default
v -277.977669 -8.412502 277.977669
v -222.382139 -8.412502 277.977669
v -166.786608 -8.412502 277.977669
v -111.191061 -8.412502 277.977669
v -55.595531 -8.412502 277.977669
v 0.000000 -8.412502 277.977669
v 55.595547 -8.412502 277.977669
v 111.191061 -8.412502 277.977669
v 166.786608 -8.412502 277.977669
v 222.382155 -8.412502 277.977669
v 277.977669 -8.412502 277.977669
v -277.977669 -8.412502 222.382139
v -222.382139 -8.412502 222.382139
v -166.786608 -8.412502 222.382139
v -111.191061 -8.412502 222.382139
v -55.595531 -8.412502 222.382139
v 0.000000 -8.412502 222.382139
v 55.595547 -8.412502 222.382139
v 111.191061 -8.412502 222.382139
v 166.786608 -8.412502 222.382139
v 222.382155 -8.412502 222.382139
v 277.977669 -8.412502 222.382139
v -277.977669 -8.412502 166.786608
v -222.382139 -8.412502 166.786608
v -166.786608 -8.412502 166.786608
v -111.191061 -8.412502 166.786608
v -55.595531 -8.412502 166.786608
v 0.000000 6.070331 166.786608
v 55.595547 -8.412502 166.786608
v 111.191061 -8.412502 166.786608
v 166.786608 -8.412502 166.786608
v 222.382155 -8.412502 166.786608
v 277.977669 -8.412502 166.786608
v -277.977669 -8.412502 111.191061
v -222.382139 -8.412502 111.191061
v -166.786608 -8.412502 111.191061
v -111.191061 8.828741 111.191061
v -55.595531 10.845836 111.191061
v 0.000000 12.964686 111.191061
v 55.595547 10.925702 111.191061
v 111.191061 6.410325 111.191061
v 166.786608 -8.412502 111.191061
v 222.382155 -8.412502 111.191061
v 277.977669 -8.412502 111.191061
v -277.977669 -8.412502 55.595531
v -222.382139 -8.412502 55.595531
v -166.786608 -8.412502 55.595531
v -111.191061 14.232018 55.595531
v -55.595531 -4.008599 55.595531
v 0.000000 -8.412502 55.595531
v 55.595547 8.780865 55.595531
v 111.191061 10.233531 55.595531
v 166.786608 -8.412502 55.595531
v 222.382155 -8.412502 55.595531
v 277.977669 -8.412502 55.595531
v -277.977669 -8.412502 0.000000
v -222.382139 -8.412502 0.000000
v -166.786608 7.474461 0.000000
v -111.191061 10.523586 0.000000
v -55.595531 -8.412502 0.000000
v 0.000000 -8.412502 0.000000
v 55.595547 -8.412502 0.000000
v 111.191061 16.101434 0.000000
v 166.786608 -8.412502 0.000000
v 222.382155 -8.412502 0.000000
v 277.977669 -8.412502 0.000000
v -277.977669 -8.412502 -55.595547
v -222.382139 -8.412502 -55.595547
v -166.786608 2.819672 -55.595547
v -111.191061 9.952946 -55.595547
v -55.595531 -8.412502 -55.595547
v 0.000000 -8.412502 -55.595547
v 55.595547 7.756625 -55.595547
v 111.191061 13.738849 -55.595547
v 166.786608 6.223392 -55.595547
v 222.382155 -8.412502 -55.595547
v 277.977669 -8.412502 -55.595547
v -277.977669 -8.412502 -111.191061
v -222.382139 -8.412502 -111.191061
v -166.786608 -8.412502 -111.191061
v -111.191061 7.191660 -111.191061
v -55.595531 12.950211 -111.191061
v 0.000000 2.927771 -111.191061
v 55.595547 8.939262 -111.191061
v 111.191061 5.116724 -111.191061
v 166.786608 -8.412502 -111.191061
v 222.382155 -8.412502 -111.191061
v 277.977669 -8.412502 -111.191061
v -277.977669 -8.412502 -166.786608
v -222.382139 -8.412502 -166.786608
v -166.786608 -8.412502 -166.786608
v -111.191061 -8.412502 -166.786608
v -55.595531 6.115826 -166.786608
v 0.000000 10.274168 -166.786608
v 55.595547 -8.412502 -166.786608
v 111.191061 -8.412502 -166.786608
v 166.786608 -8.412502 -166.786608
v 222.382155 -8.412502 -166.786608
v 277.977669 -8.412502 -166.786608
v -277.977669 -8.412502 -222.382155
v -222.382139 -8.412502 -222.382155
v -166.786608 -8.412502 -222.382155
v -111.191061 -8.412502 -222.382155
v -55.595531 -8.412502 -222.382155
v 0.000000 -8.412502 -222.382155
v 55.595547 -8.412502 -222.382155
v 111.191061 -8.412502 -222.382155
v 166.786608 -8.412502 -222.382155
v 222.382155 -8.412502 -222.382155
v 277.977669 -8.412502 -222.382155
v -277.977669 -8.412502 -277.977669
v -222.382139 -8.412502 -277.977669
v -166.786608 -8.412502 -277.977669
v -111.191061 -8.412502 -277.977669
v -55.595531 -8.412502 -277.977669
v 0.000000 -8.412502 -277.977669
v 55.595547 -8.412502 -277.977669
v 111.191061 -8.412502 -277.977669
v 166.786608 -8.412502 -277.977669
v 222.382155 -8.412502 -277.977669
v 277.977669 -8.412502 -277.977669
vt -6.746734 -6.856140
vt -5.283672 -6.856140
vt -3.820612 -6.856140
vt -2.357550 -6.856140
vt -0.894490 -6.856140
vt 0.568571 -6.856140
vt 2.031632 -6.856140
vt 3.494693 -6.856140
vt 4.957753 -6.856140
vt 6.420815 -6.856140
vt 7.883875 -6.856140
vt -6.746734 -5.393079
vt -5.283672 -5.393079
vt -3.820612 -5.393079
vt -2.357550 -5.393079
vt -0.894490 -5.393079
vt 0.568571 -5.393079
vt 2.031632 -5.393079
vt 3.494693 -5.393079
vt 4.957753 -5.393079
vt 6.420815 -5.393079
vt 7.883875 -5.393079
vt -6.746734 -3.930018
vt -5.283672 -3.930018
vt -3.820612 -3.930018
vt -2.357550 -3.930018
vt -0.894490 -3.930018
vt 0.568571 -3.930018
vt 2.031632 -3.930018
vt 3.494693 -3.930018
vt 4.957753 -3.930018
vt 6.420815 -3.930018
vt 7.883875 -3.930018
vt -6.746734 -2.466957
vt -5.283672 -2.466957
vt -3.820612 -2.466957
vt -2.357550 -2.466957
vt -0.894490 -2.466957
vt 0.568571 -2.466957
vt 2.031632 -2.466957
vt 3.494693 -2.466957
vt 4.957753 -2.466957
vt 6.420815 -2.466957
vt 7.883875 -2.466957
vt -6.746734 -1.003896
vt -5.283672 -1.003896
vt -3.820612 -1.003896
vt -2.357550 -1.003896
vt -0.894490 -1.003896
vt 0.568571 -1.003896
vt 2.031632 -1.003896
vt 3.494693 -1.003896
vt 4.957753 -1.003896
vt 6.420815 -1.003896
vt 7.883875 -1.003896
vt -6.746734 0.459165
vt -5.283672 0.459165
vt -3.820612 0.459165
vt -2.357550 0.459165
vt -0.894490 0.459165
vt 0.568571 0.459165
vt 2.031632 0.459165
vt 3.494693 0.459165
vt 4.957753 0.459165
vt 6.420815 0.459165
vt 7.883875 0.459165
vt -6.746734 1.922226
vt -5.283672 1.922226
vt -3.820612 1.922226
vt -2.357550 1.922226
vt -0.894490 1.922226
vt 0.568571 1.922226
vt 2.031632 1.922226
vt 3.494693 1.922226
vt 4.957753 1.922226
vt 6.420815 1.922226
vt 7.883875 1.922226
vt -6.746734 3.385286
vt -5.283672 3.385286
vt -3.820612 3.385286
vt -2.357550 3.385286
vt -0.894490 3.385286
vt 0.568571 3.385286
vt 2.031632 3.385286
vt 3.494693 3.385286
vt 4.957753 3.385286
vt 6.420815 3.385286
vt 7.883875 3.385286
vt -6.746734 4.848348
vt -5.283672 4.848348
vt -3.820612 4.848348
vt -2.357550 4.848348
vt -0.894490 4.848348
vt 0.568571 4.848348
vt 2.031632 4.848348
vt 3.494693 4.848348
vt 4.957753 4.848348
vt 6.420815 4.848348
vt 7.883875 4.848348
vt -6.746734 6.311409
vt -5.283672 6.311409
vt -3.820612 6.311409
vt -2.357550 6.311409
vt -0.894490 6.311409
vt 0.568571 6.311409
vt 2.031632 6.311409
vt 3.494693 6.311409
vt 4.957753 6.311409
vt 6.420815 6.311409
vt 7.883875 6.311409
vt -6.746734 7.774469
vt -5.283672 7.774469
vt -3.820612 7.774469
vt -2.357550 7.774469
vt -0.894490 7.774469
vt 0.568571 7.774469
vt 2.031632 7.774469
vt 3.494693 7.774469
vt 4.957753 7.774469
vt 6.420815 7.774469
vt 7.883875 7.774469
vn 0.000000 1.000000 0.000000
vn 0.000000 1.000000 0.000000
vn 0.000000 1.000000 0.000000
vn 0.000000 1.000000 0.000000
vn 0.000000 1.000000 0.000000
vn 0.000000 1.000000 0.000000
vn 0.000000 1.000000 0.000000
vn 0.000000 1.000000 0.000000
vn 0.000000 1.000000 0.000000
vn 0.000000 1.000000 0.000000
vn 0.000000 1.000000 0.000000
vn 0.000000 0.997757 0.066933
vn 0.000000 1.000000 0.000000
vn 0.000000 1.000000 0.000000
vn 0.000000 1.000000 0.000000
vn 0.000000 1.000000 0.000000
vn 0.000000 1.000000 0.000000
vn 0.000000 1.000000 0.000000
vn 0.000000 1.000000 0.000000
vn 0.000000 1.000000 0.000000
vn 0.000000 1.000000 0.000000
vn 0.000000 1.000000 0.000000
vn 0.000000 1.000000 0.000000
vn 0.000000 1.000000 0.000000
vn 0.000000 1.000000 0.000000
vn -0.044612 0.991613 0.121297
vn -0.093996 0.975448 0.199165
vn -0.000159 0.970245 0.242125
vn 0.093975 0.975316 0.199819
vn 0.043988 0.992891 0.110604
vn 0.000000 1.000000 0.000000
vn 0.000000 1.000000 0.000000
vn 0.000000 1.000000 0.000000
vn 0.000000 1.000000 0.000000
vn 0.000000 1.000000 0.000000
vn -0.129139 0.990281 0.051646
vn -0.166008 0.966618 0.195167
vn -0.013527 0.998629 0.050560
vn -0.031379 0.996781 -0.073776
vn 0.063844 0.989640 0.128591
vn 0.168182 0.972326 0.162165
vn 0.108997 0.993132 0.042529
vn 0.000000 1.000000 0.000000
vn 0.000000 1.000000 0.000000
vn 0.000000 1.000000 0.000000
vn 0.000000 1.000000 0.000000
vn -0.229275 0.968014 0.101896
vn -0.028150 0.999602 0.002015
vn 0.183098 0.966481 -0.179973
vn -0.082109 0.969521 -0.230838
vn -0.174211 0.971179 -0.162671
vn 0.157289 0.985432 0.064688
vn 0.178801 0.983808 0.012313
vn 0.000000 1.000000 0.000000
vn 0.000000 1.000000 0.000000
vn 0.000000 1.000000 0.000000
vn -0.107526 0.993515 0.036973
vn -0.208837 0.975094 0.074691
vn 0.138942 0.989552 -0.038504
vn 0.176603 0.983853 -0.029051
vn 0.000000 1.000000 0.000000
vn -0.278550 0.960400 -0.006491
vn 0.035958 0.998272 0.046475
vn 0.241762 0.965816 0.093544
vn 0.000000 1.000000 0.000000
vn 0.000000 1.000000 0.000000
vn 0.000000 1.000000 0.000000
vn -0.086527 0.995605 -0.035843
vn -0.180396 0.976146 -0.120811
vn 0.058797 0.998092 0.018840
vn 0.180647 0.970488 0.159746
vn -0.106929 0.984838 0.136605
vn -0.213268 0.967868 0.133219
vn 0.035409 0.996464 -0.076195
vn 0.245277 0.969203 -0.022012
vn 0.067676 0.997707 0.000000
vn 0.000000 1.000000 0.000000
vn 0.000000 1.000000 0.000000
vn 0.000000 1.000000 0.000000
vn -0.128450 0.985625 -0.109741
vn -0.186408 0.969559 -0.158770
vn 0.061449 0.992344 0.107137
vn -0.009548 0.985776 0.167796
vn 0.016028 0.993591 -0.111896
vn 0.129344 0.968074 -0.214716
vn 0.122322 0.984327 -0.127032
vn 0.000000 1.000000 0.000000
vn 0.000000 1.000000 0.000000
vn 0.000000 1.000000 0.000000
vn 0.000000 1.000000 0.000000
vn 0.000000 1.000000 0.000000
vn -0.130814 0.982123 -0.135359
vn -0.133999 0.967473 -0.214568
vn 0.103028 0.977880 -0.182035
vn 0.129621 0.974371 -0.183847
vn 0.031216 0.995316 -0.091500
vn 0.000000 1.000000 0.000000
vn 0.000000 1.000000 0.000000
vn 0.000000 1.000000 0.000000
vn 0.000000 1.000000 0.000000
vn 0.000000 1.000000 0.000000
vn 0.000000 1.000000 0.000000
vn 0.000000 1.000000 0.000000
vn -0.033640 0.994589 -0.098288
vn 0.034988 0.992462 -0.117453
vn 0.000000 1.000000 0.000000
vn 0.000000 1.000000 0.000000
vn 0.000000 1.000000 0.000000
vn 0.000000 1.000000 0.000000
vn 0.000000 1.000000 0.000000
vn 0.000000 1.000000 0.000000
vn 0.000000 1.000000 0.000000
vn 0.000000 1.000000 0.000000
vn 0.000000 1.000000 0.000000
vn 0.000000 1.000000 0.000000
vn 0.000000 1.000000 0.000000
vn 0.000000 1.000000 0.000000
vn 0.000000 1.000000 0.000000
vn 0.000000 1.000000 0.000000
vn 0.000000 1.000000 0.000000
vn 0.000000 1.000000 0.000000
s 1
g GroundTest
usemtl phong6SG
f 1/1/1 2/2/2 12/12/3
f 12/12/3 2/2/2 13/13/4
f 2/2/2 3/3/5 13/13/4
f 13/13/4 3/3/5 14/14/6
f 3/3/5 4/4/7 14/14/6
f 14/14/6 4/4/7 15/15/8
f 4/4/7 5/5/9 15/15/8
f 15/15/8 5/5/9 16/16/10
f 5/5/9 6/6/11 16/16/10
f 16/16/10 6/6/11 17/17/12
f 6/6/11 7/7/13 17/17/12
f 17/17/12 7/7/13 18/18/14
f 7/7/13 8/8/15 18/18/14
f 18/18/14 8/8/15 19/19/16
f 8/8/15 9/9/17 19/19/16
f 19/19/16 9/9/17 20/20/18
f 9/9/17 10/10/19 20/20/18
f 20/20/18 10/10/19 21/21/20
f 10/10/19 11/11/21 21/21/20
f 21/21/20 11/11/21 22/22/22
f 12/12/3 13/13/4 23/23/23
f 23/23/23 13/13/4 24/24/24
f 13/13/4 14/14/6 24/24/24
f 24/24/24 14/14/6 25/25/25
f 14/14/6 15/15/8 25/25/25
f 25/25/25 15/15/8 26/26/26
f 15/15/8 16/16/10 26/26/26
f 26/26/26 16/16/10 27/27/27
f 16/16/10 17/17/12 27/27/27
f 27/27/27 17/17/12 28/28/28
f 18/18/14 29/29/29 17/17/12
f 17/17/12 29/29/29 28/28/28
f 18/18/14 19/19/16 29/29/29
f 29/29/29 19/19/16 30/30/30
f 19/19/16 20/20/18 30/30/30
f 30/30/30 20/20/18 31/31/31
f 20/20/18 21/21/20 31/31/31
f 31/31/31 21/21/20 32/32/32
f 21/21/20 22/22/22 32/32/32
f 32/32/32 22/22/22 33/33/33
f 23/23/23 24/24/24 34/34/34
f 34/34/34 24/24/24 35/35/35
f 24/24/24 25/25/25 35/35/35
f 35/35/35 25/25/25 36/36/36
f 25/25/25 26/26/26 36/36/36
f 36/36/36 26/26/26 37/37/37
f 27/27/27 38/38/38 26/26/26
f 26/26/26 38/38/38 37/37/37
f 27/27/27 28/28/28 38/38/38
f 38/38/38 28/28/28 39/39/39
f 29/29/29 40/40/40 28/28/28
f 28/28/28 40/40/40 39/39/39
f 29/29/29 30/30/30 40/40/40
f 40/40/40 30/30/30 41/41/41
f 31/31/31 42/42/42 30/30/30
f 30/30/30 42/42/42 41/41/41
f 31/31/31 32/32/32 42/42/42
f 42/42/42 32/32/32 43/43/43
f 32/32/32 33/33/33 43/43/43
f 43/43/43 33/33/33 44/44/44
f 34/34/34 35/35/35 45/45/45
f 45/45/45 35/35/35 46/46/46
f 35/35/35 36/36/36 46/46/46
f 46/46/46 36/36/36 47/47/47
f 37/37/37 48/48/48 36/36/36
f 36/36/36 48/48/48 47/47/47
f 37/37/37 38/38/38 48/48/48
f 48/48/48 38/38/38 49/49/49
f 38/38/38 39/39/39 49/49/49
f 49/49/49 39/39/39 50/50/50
f 40/40/40 51/51/51 39/39/39
f 39/39/39 51/51/51 50/50/50
f 41/41/41 52/52/52 40/40/40
f 40/40/40 52/52/52 51/51/51
f 41/41/41 42/42/42 52/52/52
f 52/52/52 42/42/42 53/53/53
f 42/42/42 43/43/43 53/53/53
f 53/53/53 43/43/43 54/54/54
f 43/43/43 44/44/44 54/54/54
f 54/54/54 44/44/44 55/55/55
f 45/45/45 46/46/46 56/56/56
f 56/56/56 46/46/46 57/57/57
f 46/46/46 47/47/47 57/57/57
f 57/57/57 47/47/47 58/58/58
f 47/47/47 48/48/48 58/58/58
f 58/58/58 48/48/48 59/59/59
f 48/48/48 49/49/49 59/59/59
f 59/59/59 49/49/49 60/60/60
f 49/49/49 50/50/50 60/60/60
f 60/60/60 50/50/50 61/61/61
f 51/51/51 62/62/62 50/50/50
f 50/50/50 62/62/62 61/61/61
f 52/52/52 63/63/63 51/51/51
f 51/51/51 63/63/63 62/62/62
f 52/52/52 53/53/53 63/63/63
f 63/63/63 53/53/53 64/64/64
f 53/53/53 54/54/54 64/64/64
f 64/64/64 54/54/54 65/65/65
f 54/54/54 55/55/55 65/65/65
f 65/65/65 55/55/55 66/66/66
f 56/56/56 57/57/57 67/67/67
f 67/67/67 57/57/57 68/68/68
f 57/57/57 58/58/58 68/68/68
f 68/68/68 58/58/58 69/69/69
f 59/59/59 70/70/70 58/58/58
f 58/58/58 70/70/70 69/69/69
f 60/60/60 71/71/71 59/59/59
f 59/59/59 71/71/71 70/70/70
f 60/60/60 61/61/61 71/71/71
f 71/71/71 61/61/61 72/72/72
f 61/61/61 62/62/62 72/72/72
f 72/72/72 62/62/62 73/73/73
f 62/62/62 63/63/63 73/73/73
f 73/73/73 63/63/63 74/74/74
f 64/64/64 75/75/75 63/63/63
f 63/63/63 75/75/75 74/74/74
f 65/65/65 76/76/76 64/64/64
f 64/64/64 76/76/76 75/75/75
f 65/65/65 66/66/66 76/76/76
f 76/76/76 66/66/66 77/77/77
f 67/67/67 68/68/68 78/78/78
f 78/78/78 68/68/68 79/79/79
f 69/69/69 80/80/80 68/68/68
f 68/68/68 80/80/80 79/79/79
f 70/70/70 81/81/81 69/69/69
f 69/69/69 81/81/81 80/80/80
f 71/71/71 82/82/82 70/70/70
f 70/70/70 82/82/82 81/81/81
f 72/72/72 83/83/83 71/71/71
f 71/71/71 83/83/83 82/82/82
f 72/72/72 73/73/73 83/83/83
f 83/83/83 73/73/73 84/84/84
f 73/73/73 74/74/74 84/84/84
f 84/84/84 74/74/74 85/85/85
f 74/74/74 75/75/75 85/85/85
f 85/85/85 75/75/75 86/86/86
f 75/75/75 76/76/76 86/86/86
f 86/86/86 76/76/76 87/87/87
f 76/76/76 77/77/77 87/87/87
f 87/87/87 77/77/77 88/88/88
f 78/78/78 79/79/79 89/89/89
f 89/89/89 79/79/79 90/90/90
f 79/79/79 80/80/80 90/90/90
f 90/90/90 80/80/80 91/91/91
f 81/81/81 92/92/92 80/80/80
f 80/80/80 92/92/92 91/91/91
f 82/82/82 93/93/93 81/81/81
f 81/81/81 93/93/93 92/92/92
f 83/83/83 94/94/94 82/82/82
f 82/82/82 94/94/94 93/93/93
f 83/83/83 84/84/84 94/94/94
f 94/94/94 84/84/84 95/95/95
f 84/84/84 85/85/85 95/95/95
f 95/95/95 85/85/85 96/96/96
f 85/85/85 86/86/86 96/96/96
f 96/96/96 86/86/86 97/97/97
f 86/86/86 87/87/87 97/97/97
f 97/97/97 87/87/87 98/98/98
f 87/87/87 88/88/88 98/98/98
f 98/98/98 88/88/88 99/99/99
f 89/89/89 90/90/90 100/100/100
f 100/100/100 90/90/90 101/101/101
f 90/90/90 91/91/91 101/101/101
f 101/101/101 91/91/91 102/102/102
f 91/91/91 92/92/92 102/102/102
f 102/102/102 92/92/92 103/103/103
f 93/93/93 104/104/104 92/92/92
f 92/92/92 104/104/104 103/103/103
f 94/94/94 105/105/105 93/93/93
f 93/93/93 105/105/105 104/104/104
f 94/94/94 95/95/95 105/105/105
f 105/105/105 95/95/95 106/106/106
f 95/95/95 96/96/96 106/106/106
f 106/106/106 96/96/96 107/107/107
f 96/96/96 97/97/97 107/107/107
f 107/107/107 97/97/97 108/108/108
f 97/97/97 98/98/98 108/108/108
f 108/108/108 98/98/98 109/109/109
f 98/98/98 99/99/99 109/109/109
f 109/109/109 99/99/99 110/110/110
f 100/100/100 101/101/101 111/111/111
f 111/111/111 101/101/101 112/112/112
f 101/101/101 102/102/102 112/112/112
f 112/112/112 102/102/102 113/113/113
f 102/102/102 103/103/103 113/113/113
f 113/113/113 103/103/103 114/114/114
f 103/103/103 104/104/104 114/114/114
f 114/114/114 104/104/104 115/115/115
f 104/104/104 105/105/105 115/115/115
f 115/115/115 105/105/105 116/116/116
f 105/105/105 106/106/106 116/116/116
f 116/116/116 106/106/106 117/117/117
f 106/106/106 107/107/107 117/117/117
f 117/117/117 107/107/107 118/118/118
f 107/107/107 108/108/108 118/118/118
f 118/118/118 108/108/108 119/119/119
f 108/108/108 109/109/109 119/119/119
f 119/119/119 109/109/109 120/120/120
f 109/109/109 110/110/110 120/120/120
f 120/120/120 110/110/110 121/121/121
