# This file uses centimeters as units for non-parametric coordinates.

mtllib ToaCanister.mtl
g default
v 1.662254 -0.000008 -1.081281
v 0.810577 0.000006 -1.819263
v -0.304883 0.000006 -1.979643
v -1.329975 0.000006 -1.511500
v -1.939240 -0.000008 -0.563465
v -1.939240 -0.000021 0.563465
v -1.329975 0.000021 1.511499
v -0.304883 -0.000018 1.979643
v 0.810576 0.000011 1.819264
v 1.662254 0.000020 1.081282
v 1.979747 -0.000000 -0.000000
v 1.949604 0.368586 -1.324569
v 0.948884 0.368591 -2.228598
v -0.361781 0.368571 -2.425062
v -1.566265 0.368586 -1.851587
v -2.282150 0.368582 -0.690245
v -2.282151 0.368582 0.690245
v -1.566265 0.368565 1.851587
v -0.361782 0.368579 2.425062
v 0.948883 0.368560 2.228598
v 1.949604 0.368584 1.324570
v 2.322658 0.368589 0.000000
v 1.949604 1.121266 -1.324569
v 0.948884 1.121308 -2.228598
v -0.361781 1.121306 -2.425062
v -1.566265 1.121285 -1.851587
v -2.282150 1.121266 -0.690245
v -2.282151 1.121282 0.690245
v -1.566265 1.121299 1.851586
v -0.361782 1.121300 2.425062
v 0.948883 1.121299 2.228598
v 1.949604 1.121279 1.324570
v 2.322658 1.121282 0.000000
v 1.949604 5.376217 -1.324569
v 0.948884 5.376217 -2.228598
v -0.361781 5.376217 -2.425062
v -1.566265 5.376217 -1.851587
v -2.282150 5.376233 -0.690245
v -2.282151 5.376220 0.690245
v -1.566265 5.376232 1.851587
v -0.361782 5.376232 2.425062
v 0.948883 5.376232 2.228599
v 1.949604 5.376232 1.324570
v 2.322658 5.376233 0.000000
v 1.949604 8.302166 -1.324569
v 0.948884 8.302164 -2.228597
v -0.361781 8.302164 -2.425062
v -1.566265 8.302166 -1.851587
v -2.282150 8.302166 -0.690245
v -2.282151 8.302166 0.690245
v -1.566265 8.302166 1.851587
v -0.361782 8.302164 2.425062
v 0.948883 8.302164 2.228599
v 1.949604 8.302166 1.324570
v 2.322658 8.302166 0.000000
v 1.949604 8.938215 -1.324569
v 0.948884 8.938212 -2.228597
v -0.361781 8.938212 -2.425062
v -1.566265 8.938215 -1.851587
v -2.282150 8.938215 -0.690245
v -2.282151 8.938201 0.690245
v -1.566265 8.938215 1.851587
v -0.361782 8.938212 2.425062
v 0.948883 8.938212 2.228599
v 1.949604 8.938201 1.324570
v 2.322658 8.938215 0.000000
v 1.949604 10.152853 -1.324569
v 0.948884 10.152861 -2.228598
v -0.361781 10.152861 -2.425062
v -1.566265 10.152853 -1.851587
v -2.282150 10.152853 -0.690245
v -2.282151 10.152853 0.690245
v -1.566265 10.152853 1.851587
v -0.361782 10.152849 2.425062
v 0.948883 10.152849 2.228599
v 1.949604 10.152853 1.324570
v 2.322658 10.152853 0.000000
v 1.800865 10.614639 -1.175893
v 0.874667 10.614639 -1.978449
v -0.338395 10.614639 -2.152862
v -1.453183 10.614639 -1.643756
v -2.115759 10.614639 -0.612768
v -2.115759 10.614639 0.612768
v -1.453183 10.614639 1.643755
v -0.338396 10.614639 2.152862
v 0.874666 10.614639 1.978450
v 1.800865 10.614639 1.175894
v 2.146139 10.614639 0.000000
v 1.518714 10.963335 -0.993427
v 0.736237 10.963335 -1.671448
v -0.288592 10.963335 -1.818797
v -1.230395 10.963335 -1.388689
v -1.790157 10.963335 -0.517684
v -1.790158 10.963335 0.517684
v -1.230395 10.963335 1.388690
v -0.288593 10.963335 1.818797
v 0.736236 10.963335 1.671449
v 1.518714 10.963335 0.993428
v 1.810411 10.963335 0.000000
v 0.969738 11.547636 -0.635252
v 0.469379 11.547636 -1.068818
v -0.185954 11.547636 -1.163040
v -0.788196 11.547636 -0.888005
v -1.146139 11.547636 -0.331036
v -1.146140 11.547636 0.331036
v -0.788196 11.547636 0.888006
v -0.185954 11.547636 1.163041
v 0.469378 11.547636 1.068819
v 0.969738 11.547636 0.635253
v 1.156266 11.547636 0.000000
v -0.000000 0.000000 -0.000000
v 0.000000 11.999998 0.000000
vt 0.472103 0.126223
vt 0.596710 0.153871
vt 0.546172 0.182930
vt 0.607686 0.115814
vt 0.575616 0.080842
vt 0.510680 0.060059
vt 0.433497 0.060063
vt 0.368571 0.080853
vt 0.336516 0.115828
vt 0.347508 0.153884
vt 0.398059 0.182939
vt 0.472118 0.193767
vt 0.624747 0.158613
vt 0.562837 0.192759
vt 0.638193 0.113896
vt 0.598906 0.072805
vt 0.519361 0.048385
vt 0.424812 0.048390
vt 0.345277 0.072818
vt 0.306009 0.113914
vt 0.319474 0.158630
vt 0.381398 0.192768
vt 0.472121 0.205491
vt 1.000000 0.991493
vt 1.000000 0.931555
vt 1.000000 0.900169
vt 1.000000 0.755786
vt 1.000000 0.545826
vt 1.000000 0.508682
vt 0.725132 0.983828
vt 0.629379 0.991492
vt 0.537968 0.991492
vt 0.450263 0.991492
vt 0.362378 0.991492
vt 0.271488 0.991492
vt 0.820885 0.508682
vt 0.912296 0.508682
vt 0.912296 0.545826
vt 0.820885 0.545824
vt 0.000000 0.508682
vt 0.000000 0.545826
vt 0.087886 0.508682
vt 0.087886 0.545825
vt 0.178775 0.508682
vt 0.178775 0.545824
vt 0.271488 0.508682
vt 0.271488 0.545824
vt 0.362378 0.508681
vt 0.362378 0.545825
vt 0.450263 0.508682
vt 0.450263 0.545825
vt 0.537968 0.508681
vt 0.537968 0.545825
vt 0.629379 0.508682
vt 0.629379 0.545824
vt 0.725132 0.508682
vt 0.725132 0.545824
vt 0.912296 0.755786
vt 0.820885 0.755786
vt 0.000000 0.755786
vt 0.087886 0.755786
vt 0.178775 0.755787
vt 0.271488 0.755787
vt 0.362378 0.755787
vt 0.450263 0.755787
vt 0.537968 0.755787
vt 0.629379 0.755787
vt 0.725132 0.755787
vt 0.912296 0.900169
vt 0.820885 0.900169
vt 0.000000 0.900169
vt 0.087886 0.900169
vt 0.178775 0.900169
vt 0.271488 0.900169
vt 0.362378 0.900169
vt 0.450263 0.900169
vt 0.537968 0.900169
vt 0.629379 0.900169
vt 0.725132 0.900169
vt 0.912296 0.931555
vt 0.820885 0.931555
vt 0.000000 0.931555
vt 0.087886 0.931555
vt 0.178775 0.931555
vt 0.271488 0.931554
vt 0.362378 0.931555
vt 0.450263 0.931555
vt 0.537968 0.931555
vt 0.629379 0.931554
vt 0.725132 0.931555
vt 0.912296 0.991493
vt 0.820885 0.991492
vt 0.000000 0.991493
vt 0.087886 0.991492
vt 0.178775 0.991492
vt 0.786581 0.037127
vt 0.978007 0.146282
vt 0.891287 0.162469
vt 0.732517 0.071811
vt 1.019664 0.286371
vt 0.926397 0.281411
vt 0.901076 0.416532
vt 0.826725 0.390890
vt 0.653005 0.496646
vt 0.623796 0.456328
vt 0.352832 0.497123
vt 0.381525 0.456713
vt 0.103740 0.417800
vt 0.177761 0.391922
vt -0.016515 0.288019
vt 0.076688 0.282762
vt 0.023345 0.147801
vt 0.110272 0.163711
vt 0.213369 0.038038
vt 0.267876 0.072550
vt 0.499706 -0.012351
vt 0.499979 0.038161
vt 0.815853 0.179614
vt 0.687738 0.106486
vt 0.844159 0.275554
vt 0.763730 0.363863
vt 0.600022 0.416595
vt 0.404789 0.416906
vt 0.240408 0.364696
vt 0.158849 0.276643
vt 0.185925 0.180616
vt 0.313099 0.107082
vt 0.500243 0.079387
vt 0.683502 0.209284
vt 0.609253 0.166942
vt 0.699941 0.264859
vt 0.653356 0.316037
vt 0.558491 0.346581
vt 0.445422 0.346761
vt 0.350166 0.316519
vt 0.302926 0.265490
vt 0.318653 0.209864
vt 0.392358 0.167287
vt 0.500704 0.151275
vt 0.501334 0.249532
vn 0.000003 -1.000000 0.000000
vn 0.140482 -0.946367 -0.290955
vn 0.289338 -0.940954 -0.175752
vn -0.046760 -0.948420 -0.313549
vn -0.219216 -0.945453 -0.240963
vn -0.324496 -0.941552 -0.090455
vn -0.324487 -0.941556 0.090450
vn -0.219218 -0.945452 0.240963
vn -0.046763 -0.948424 0.313538
vn 0.140487 -0.946371 0.290938
vn 0.289333 -0.940957 0.175745
vn 0.346344 -0.938108 0.000007
vn 0.402697 -0.307520 -0.862129
vn 0.813746 -0.276517 -0.511230
vn -0.138928 -0.317487 -0.938031
vn -0.634003 -0.298448 -0.713420
vn -0.925022 -0.272152 -0.265081
vn -0.925022 -0.272149 0.265083
vn -0.634005 -0.298448 0.713419
vn -0.138930 -0.317481 0.938032
vn 0.402697 -0.307525 0.862127
vn 0.813748 -0.276515 0.511229
vn 0.966031 -0.258425 0.000001
vn 0.429882 -0.000000 -0.902885
vn 0.851262 0.000000 -0.524741
vn -0.148241 0.000000 -0.988951
vn -0.670350 0.000000 -0.742045
vn -0.962553 0.000000 -0.271095
vn -0.962553 -0.000000 0.271093
vn -0.670349 -0.000000 0.742046
vn -0.148240 -0.000000 0.988951
vn 0.429881 -0.000000 0.902886
vn 0.851261 -0.000000 0.524742
vn 1.000000 0.000000 -0.000000
vn 0.429881 0.000000 -0.902886
vn 0.851261 0.000000 -0.524742
vn -0.148240 0.000000 -0.988951
vn -0.670349 0.000000 -0.742046
vn -0.962553 0.000000 -0.271095
vn -0.962553 -0.000000 0.271094
vn -0.670348 -0.000000 0.742047
vn -0.148240 -0.000000 0.988951
vn 0.429880 -0.000000 0.902886
vn 0.851261 -0.000000 0.524743
vn 1.000000 0.000000 0.000000
vn 0.429881 0.000000 -0.902886
vn 0.851261 0.000000 -0.524743
vn -0.148240 0.000000 -0.988951
vn -0.670348 0.000000 -0.742047
vn -0.962552 0.000000 -0.271096
vn -0.962553 -0.000000 0.271095
vn -0.670348 -0.000000 0.742047
vn -0.148240 0.000000 0.988951
vn 0.429880 -0.000000 0.902886
vn 0.851261 -0.000000 0.524743
vn 1.000000 0.000000 -0.000000
vn 0.429880 -0.000000 -0.902886
vn 0.851261 -0.000000 -0.524743
vn -0.148239 -0.000000 -0.988952
vn -0.670348 0.000000 -0.742047
vn -0.962553 0.000000 -0.271095
vn -0.962553 0.000000 0.271095
vn -0.670348 -0.000000 0.742047
vn -0.148240 0.000000 0.988951
vn 0.429880 0.000000 0.902886
vn 0.851261 0.000000 0.524743
vn 1.000000 0.000000 0.000000
vn 0.420808 0.135844 -0.896921
vn 0.842221 0.113186 -0.527117
vn -0.144475 0.141614 -0.979322
vn -0.659483 0.124339 -0.741365
vn -0.956409 0.102061 -0.273616
vn -0.956409 0.102061 0.273617
vn -0.659483 0.124339 0.741365
vn -0.144476 0.141614 0.979322
vn 0.420809 0.135843 0.896921
vn 0.842221 0.113186 0.527117
vn 0.995002 0.099855 0.000001
vn 0.350966 0.569451 -0.743336
vn 0.719487 0.532009 -0.446436
vn -0.120363 0.580004 -0.805672
vn -0.557669 0.551074 -0.620744
vn -0.823707 0.516899 -0.233074
vn -0.823707 0.516899 0.233073
vn -0.557669 0.551072 0.620746
vn -0.120362 0.579999 0.805676
vn 0.350966 0.569447 0.743339
vn 0.719486 0.532008 0.446438
vn 0.859015 0.511950 0.000000
vn 0.286749 0.722649 -0.628931
vn 0.582534 0.721297 -0.374679
vn -0.098570 0.724404 -0.682292
vn -0.450610 0.726002 -0.519492
vn -0.658917 0.726945 -0.193339
vn -0.658917 0.726945 0.193338
vn -0.450610 0.726001 0.519492
vn -0.098571 0.724404 0.682293
vn 0.286748 0.722649 0.628931
vn 0.582534 0.721298 0.374679
vn 0.693152 0.720791 0.000000
vn 0.242827 0.811908 -0.530886
vn 0.493109 0.810291 -0.316657
vn -0.082297 0.813997 -0.575010
vn -0.378432 0.815889 -0.437167
vn -0.553249 0.817000 -0.162560
vn -0.553250 0.817001 0.162558
vn -0.378432 0.815889 0.437167
vn -0.082297 0.813997 0.575009
vn 0.242827 0.811908 0.530886
vn 0.493109 0.810291 0.316657
vn 0.586867 0.809684 0.000000
vn 0.002738 0.999996 -0.000000
s 1
g CanisterSolid1
usemtl phong1SG
f 111/1/1 2/2/2 1/3/3
f 111/1/1 3/4/4 2/2/2
f 111/1/1 4/5/5 3/4/4
f 111/1/1 5/6/6 4/5/5
f 111/1/1 6/7/7 5/6/6
f 111/1/1 7/8/8 6/7/7
f 111/1/1 8/9/9 7/8/8
f 111/1/1 9/10/10 8/9/9
f 111/1/1 10/11/11 9/10/10
f 111/1/1 11/12/12 10/11/11
f 111/1/1 1/3/3 11/12/12
f 1/3/3 2/2/2 13/13/13 12/14/14
f 2/2/2 3/4/4 14/15/15 13/13/13
f 3/4/4 4/5/5 15/16/16 14/15/15
f 4/5/5 5/6/6 16/17/17 15/16/16
f 5/6/6 6/7/7 17/18/18 16/17/17
f 6/7/7 7/8/8 18/19/19 17/18/18
f 7/8/8 8/9/9 19/20/20 18/19/19
f 8/9/9 9/10/10 20/21/21 19/20/20
f 9/10/10 10/11/11 21/22/22 20/21/21
f 10/11/11 11/12/12 22/23/23 21/22/22
f 11/12/12 1/3/3 12/14/14 22/23/23
f 12/36/14 13/37/13 24/38/24 23/39/25
f 13/37/13 14/29/15 25/28/26 24/38/24
f 14/40/15 15/42/16 26/43/27 25/41/26
f 15/42/16 16/44/17 27/45/28 26/43/27
f 16/44/17 17/46/18 28/47/29 27/45/28
f 17/46/18 18/48/19 29/49/30 28/47/29
f 18/48/19 19/50/20 30/51/31 29/49/30
f 19/50/20 20/52/21 31/53/32 30/51/31
f 20/52/21 21/54/22 32/55/33 31/53/32
f 21/54/22 22/56/23 33/57/34 32/55/33
f 22/56/23 12/36/14 23/39/25 33/57/34
f 23/39/25 24/38/24 35/58/35 34/59/36
f 24/38/24 25/28/26 36/27/37 35/58/35
f 25/41/26 26/43/27 37/61/38 36/60/37
f 26/43/27 27/45/28 38/62/39 37/61/38
f 27/45/28 28/47/29 39/63/40 38/62/39
f 28/47/29 29/49/30 40/64/41 39/63/40
f 29/49/30 30/51/31 41/65/42 40/64/41
f 30/51/31 31/53/32 42/66/43 41/65/42
f 31/53/32 32/55/33 43/67/44 42/66/43
f 32/55/33 33/57/34 44/68/45 43/67/44
f 33/57/34 23/39/25 34/59/36 44/68/45
f 35/58/35 46/69/46 45/70/47 34/59/36
f 36/27/37 47/26/48 46/69/46 35/58/35
f 37/61/38 48/72/49 47/71/48 36/60/37
f 38/62/39 49/73/50 48/72/49 37/61/38
f 39/63/40 50/74/51 49/73/50 38/62/39
f 40/64/41 51/75/52 50/74/51 39/63/40
f 41/65/42 52/76/53 51/75/52 40/64/41
f 42/66/43 53/77/54 52/76/53 41/65/42
f 43/67/44 54/78/55 53/77/54 42/66/43
f 44/68/45 55/79/56 54/78/55 43/67/44
f 34/59/36 45/70/47 55/79/56 44/68/45
f 45/70/47 46/69/46 57/80/57 56/81/58
f 46/69/46 47/26/48 58/25/59 57/80/57
f 47/71/48 48/72/49 59/83/60 58/82/59
f 48/72/49 49/73/50 60/84/61 59/83/60
f 49/73/50 50/74/51 61/85/62 60/84/61
f 50/74/51 51/75/52 62/86/63 61/85/62
f 51/75/52 52/76/53 63/87/64 62/86/63
f 52/76/53 53/77/54 64/88/65 63/87/64
f 53/77/54 54/78/55 65/89/66 64/88/65
f 54/78/55 55/79/56 66/90/67 65/89/66
f 55/79/56 45/70/47 56/81/58 66/90/67
f 56/81/58 57/80/57 68/91/68 67/92/69
f 57/80/57 58/25/59 69/24/70 68/91/68
f 58/82/59 59/83/60 70/94/71 69/93/70
f 59/83/60 60/84/61 71/95/72 70/94/71
f 60/84/61 61/85/62 72/35/73 71/95/72
f 61/85/62 62/86/63 73/34/74 72/35/73
f 62/86/63 63/87/64 74/33/75 73/34/74
f 63/87/64 64/88/65 75/32/76 74/33/75
f 64/88/65 65/89/66 76/31/77 75/32/76
f 65/89/66 66/90/67 77/30/78 76/31/77
f 66/90/67 56/81/58 67/92/69 77/30/78
f 67/96/69 68/97/68 79/98/79 78/99/80
f 68/97/68 69/100/70 80/101/81 79/98/79
f 69/100/70 70/102/71 81/103/82 80/101/81
f 70/102/71 71/104/72 82/105/83 81/103/82
f 71/104/72 72/106/73 83/107/84 82/105/83
f 72/106/73 73/108/74 84/109/85 83/107/84
f 73/108/74 74/110/75 85/111/86 84/109/85
f 74/110/75 75/112/76 86/113/87 85/111/86
f 75/112/76 76/114/77 87/115/88 86/113/87
f 76/114/77 77/116/78 88/117/89 87/115/88
f 77/116/78 67/96/69 78/99/80 88/117/89
f 78/99/80 79/98/79 90/118/90 89/119/91
f 79/98/79 80/101/81 91/120/92 90/118/90
f 80/101/81 81/103/82 92/121/93 91/120/92
f 81/103/82 82/105/83 93/122/94 92/121/93
f 82/105/83 83/107/84 94/123/95 93/122/94
f 83/107/84 84/109/85 95/124/96 94/123/95
f 84/109/85 85/111/86 96/125/97 95/124/96
f 85/111/86 86/113/87 97/126/98 96/125/97
f 86/113/87 87/115/88 98/127/99 97/126/98
f 87/115/88 88/117/89 99/128/100 98/127/99
f 88/117/89 78/99/80 89/119/91 99/128/100
f 89/119/91 90/118/90 101/129/101 100/130/102
f 90/118/90 91/120/92 102/131/103 101/129/101
f 91/120/92 92/121/93 103/132/104 102/131/103
f 92/121/93 93/122/94 104/133/105 103/132/104
f 93/122/94 94/123/95 105/134/106 104/133/105
f 94/123/95 95/124/96 106/135/107 105/134/106
f 95/124/96 96/125/97 107/136/108 106/135/107
f 96/125/97 97/126/98 108/137/109 107/136/108
f 97/126/98 98/127/99 109/138/110 108/137/109
f 98/127/99 99/128/100 110/139/111 109/138/110
f 99/128/100 89/119/91 100/130/102 110/139/111
f 100/130/102 101/129/101 112/140/112
f 101/129/101 102/131/103 112/140/112
f 102/131/103 103/132/104 112/140/112
f 103/132/104 104/133/105 112/140/112
f 104/133/105 105/134/106 112/140/112
f 105/134/106 106/135/107 112/140/112
f 106/135/107 107/136/108 112/140/112
f 107/136/108 108/137/109 112/140/112
f 108/137/109 109/138/110 112/140/112
f 109/138/110 110/139/111 112/140/112
f 110/139/111 100/130/102 112/140/112
