# This file uses centimeters as units for non-parametric coordinates.

mtllib ShadowToken.mtl
g default
v 0.433334 -0.027741 -0.750555
v -0.433333 -0.027741 -0.750555
v -0.866667 -0.027741 -0.000000
v -0.433333 -0.027741 0.750555
v 0.433333 -0.027741 0.750555
v 0.866667 -0.027741 0.000000
v 0.433334 -0.092471 -0.750555
v -0.433333 -0.092471 -0.750556
v -0.866667 -0.092471 -0.000000
v -0.433333 -0.092471 0.750555
v 0.433333 -0.092471 0.750555
v 0.866667 -0.092471 0.000000
v 0.500000 -0.092471 -0.866025
v -0.500000 -0.092471 -0.866026
v -1.000000 -0.092471 -0.000000
v -0.500000 -0.092471 0.866025
v 0.500000 -0.092471 0.866025
v 1.000000 -0.092471 0.000000
v 0.500000 0.092471 -0.866025
v -0.500000 0.092471 -0.866026
v -1.000000 0.092471 -0.000000
v -0.500000 0.092471 0.866025
v 0.500000 0.092471 0.866025
v 1.000000 0.092471 0.000000
v 0.433334 0.092471 -0.750555
v -0.433333 0.092471 -0.750556
v -0.866667 0.092471 -0.000000
v -0.433333 0.092471 0.750555
v 0.433333 0.092471 0.750555
v 0.866667 0.092471 0.000000
v 0.433334 0.027741 -0.750555
v -0.433333 0.027741 -0.750555
v -0.866667 0.027741 -0.000000
v -0.433333 0.027741 0.750555
v 0.433333 0.027741 0.750555
v 0.866667 0.027741 0.000000
v 0.000000 -0.092471 0.000000
v 0.000000 0.092471 0.000000
vt 0.574318 0.488362
vt 0.574318 0.468324
vt 0.798671 0.468324
vt 0.619189 0.488362
vt 0.619189 0.468324
vt 0.533728 0.406359
vt 0.519177 0.406359
vt 0.518058 0.404421
vt 0.534847 0.404421
vt 0.511902 0.418960
vt 0.509664 0.418960
vt 0.519177 0.431562
vt 0.518058 0.433500
vt 0.533728 0.431562
vt 0.534847 0.433500
vt 0.541003 0.418960
vt 0.543242 0.418960
vt 0.799816 0.469749
vt 0.590771 0.469749
vt 0.590771 0.487440
vt 0.799816 0.487440
vt 0.632580 0.469749
vt 0.632580 0.487440
vt 0.674389 0.469749
vt 0.674389 0.487440
vt 0.716198 0.469749
vt 0.716198 0.487440
vt 0.758007 0.469749
vt 0.758007 0.487440
vt 0.463600 0.246902
vt 0.588422 0.030703
vt 0.463920 0.311689
vt 0.444097 0.311689
vt 0.445419 0.309400
vt 0.462599 0.309400
vt 0.434186 0.294522
vt 0.436829 0.294522
vt 0.444097 0.277355
vt 0.445419 0.279644
vt 0.463920 0.277355
vt 0.462599 0.279644
vt 0.473831 0.294522
vt 0.471188 0.294522
vt 0.798595 0.486775
vt 0.557747 0.486775
vt 0.557747 0.470895
vt 0.798595 0.470895
vt 0.605917 0.486775
vt 0.605917 0.470895
vt 0.838068 0.463102
vt 0.412487 0.708759
vt 0.163309 0.708759
vt 0.287898 0.492965
vt 0.038720 0.492965
vt 0.163309 0.277171
vt 0.412487 0.277171
vt 0.537076 0.492965
vt 0.588422 0.463102
vt 0.713245 0.246902
vt 0.962891 0.246902
vt 0.838068 0.030703
vt 0.841625 0.469749
vt 0.841625 0.487440
vt 0.664059 0.488362
vt 0.664059 0.468324
vt 0.708930 0.488362
vt 0.708930 0.468324
vt 0.753800 0.488362
vt 0.753800 0.468324
vt 0.798671 0.488362
vt 0.843541 0.488362
vt 0.843541 0.468324
vt 0.654086 0.486775
vt 0.654086 0.470895
vt 0.702256 0.486775
vt 0.702256 0.470895
vt 0.750425 0.486775
vt 0.750425 0.470895
vt 0.846764 0.486775
vt 0.846764 0.470895
vn -0.000000 -0.000001 1.000000
vn -0.000000 -0.000001 1.000000
vn -0.000000 -0.000001 1.000000
vn -0.000000 -0.000001 1.000000
vn 0.866025 -0.000000 0.500000
vn 0.866025 -0.000000 0.500000
vn 0.866025 -0.000000 0.500000
vn 0.866025 -0.000000 0.500000
vn 0.866026 -0.000000 -0.500000
vn 0.866026 -0.000000 -0.500000
vn 0.866026 -0.000000 -0.500000
vn 0.866026 -0.000000 -0.500000
vn 0.000000 0.000000 -1.000000
vn 0.000000 0.000000 -1.000000
vn 0.000000 0.000000 -1.000000
vn 0.000000 0.000000 -1.000000
vn -0.866025 0.000000 -0.500000
vn -0.866025 0.000000 -0.500000
vn -0.866025 0.000000 -0.500000
vn -0.866025 0.000000 -0.500000
vn -0.866026 -0.000000 0.500000
vn -0.866026 -0.000000 0.500000
vn -0.866026 -0.000000 0.500000
vn -0.866026 -0.000000 0.500000
vn 0.000000 -1.000000 0.000000
vn 0.000000 -1.000000 0.000000
vn 0.000000 -1.000000 0.000000
vn 0.000000 -1.000000 0.000000
vn 0.000000 -1.000000 -0.000000
vn 0.000000 -1.000000 -0.000000
vn 0.000000 -1.000000 -0.000000
vn 0.000000 -1.000000 -0.000000
vn 0.000000 -1.000000 0.000000
vn 0.000000 -1.000000 0.000000
vn 0.000000 -1.000000 0.000000
vn 0.000000 -1.000000 0.000000
vn 0.000000 -1.000000 0.000000
vn 0.000000 -1.000000 0.000000
vn 0.000000 -1.000000 0.000000
vn 0.000000 -1.000000 0.000000
vn 0.000000 -1.000000 0.000000
vn 0.000000 -1.000000 0.000000
vn 0.000000 -1.000000 0.000000
vn 0.000000 -1.000000 0.000000
vn 0.000000 -1.000000 0.000000
vn 0.000000 -1.000000 0.000000
vn 0.000000 -1.000000 0.000000
vn 0.000000 -1.000000 0.000000
vn 0.000000 -0.000000 -1.000000
vn 0.000000 -0.000000 -1.000000
vn 0.000000 -0.000000 -1.000000
vn 0.000000 -0.000000 -1.000000
vn -0.866025 0.000000 -0.500000
vn -0.866025 0.000000 -0.500000
vn -0.866025 0.000000 -0.500000
vn -0.866025 0.000000 -0.500000
vn -0.866025 0.000000 0.500000
vn -0.866025 0.000000 0.500000
vn -0.866025 0.000000 0.500000
vn -0.866025 0.000000 0.500000
vn -0.000000 0.000000 1.000000
vn -0.000000 0.000000 1.000000
vn -0.000000 0.000000 1.000000
vn -0.000000 0.000000 1.000000
vn 0.866025 0.000000 0.500000
vn 0.866025 0.000000 0.500000
vn 0.866025 0.000000 0.500000
vn 0.866025 0.000000 0.500000
vn 0.866026 0.000000 -0.500000
vn 0.866026 0.000000 -0.500000
vn 0.866026 0.000000 -0.500000
vn 0.866026 0.000000 -0.500000
vn 0.000000 1.000000 -0.000000
vn 0.000000 1.000000 -0.000000
vn 0.000000 1.000000 -0.000000
vn 0.000000 1.000000 -0.000000
vn 0.000000 1.000000 0.000000
vn 0.000000 1.000000 0.000000
vn 0.000000 1.000000 0.000000
vn 0.000000 1.000000 0.000000
vn 0.000000 1.000000 0.000000
vn 0.000000 1.000000 0.000000
vn 0.000000 1.000000 0.000000
vn 0.000000 1.000000 0.000000
vn 0.000000 1.000000 0.000000
vn 0.000000 1.000000 0.000000
vn 0.000000 1.000000 0.000000
vn 0.000000 1.000000 0.000000
vn 0.000000 1.000000 0.000000
vn 0.000000 1.000000 0.000000
vn 0.000000 1.000000 0.000000
vn 0.000000 1.000000 0.000000
vn 0.000000 1.000000 0.000000
vn 0.000000 1.000000 0.000000
vn 0.000000 1.000000 0.000000
vn 0.000000 1.000000 0.000000
vn -0.000000 0.000001 1.000000
vn -0.000000 0.000001 1.000000
vn -0.000000 0.000001 1.000000
vn -0.000000 0.000001 1.000000
vn 0.866025 0.000000 0.500000
vn 0.866025 0.000000 0.500000
vn 0.866025 0.000000 0.500000
vn 0.866025 0.000000 0.500000
vn 0.866026 0.000000 -0.500000
vn 0.866026 0.000000 -0.500000
vn 0.866026 0.000000 -0.500000
vn 0.866026 0.000000 -0.500000
vn 0.000000 -0.000000 -1.000000
vn 0.000000 -0.000000 -1.000000
vn 0.000000 -0.000000 -1.000000
vn 0.000000 -0.000000 -1.000000
vn -0.866025 0.000000 -0.500000
vn -0.866025 0.000000 -0.500000
vn -0.866025 0.000000 -0.500000
vn -0.866025 0.000000 -0.500000
vn -0.866026 0.000000 0.500000
vn -0.866026 0.000000 0.500000
vn -0.866026 0.000000 0.500000
vn -0.866026 0.000000 0.500000
vn 0.000000 -0.996302 -0.085923
vn 0.000000 -0.996302 -0.085923
vn 0.000000 -0.996302 -0.085923
vn -0.074412 -0.996302 -0.042962
vn -0.074412 -0.996302 0.042962
vn 0.000000 -0.996302 0.085923
vn 0.074412 -0.996302 0.042962
vn 0.000000 0.996302 -0.085923
vn 0.000000 0.996302 -0.085923
vn 0.000000 0.996302 -0.085923
vn -0.074412 0.996302 -0.042962
vn -0.074412 0.996302 0.042962
vn 0.000000 0.996302 0.085923
vn 0.074412 0.996302 0.042962
s off
g ShadowToken
usemtl phong1SG
f 1/70/1 2/71/2 8/72/3 7/3/4
f 2/1/5 3/4/6 9/5/7 8/2/8
f 3/4/9 4/64/10 10/65/11 9/5/12
f 4/64/13 5/66/14 11/67/15 10/65/16
f 5/66/17 6/68/18 12/69/19 11/67/20
f 6/68/21 1/70/22 7/3/23 12/69/24
f 7/6/25 8/7/26 14/8/27 13/9/28
f 8/7/29 9/10/30 15/11/31 14/8/32
f 9/10/33 10/12/34 16/13/35 15/11/36
f 10/12/37 11/14/38 17/15/39 16/13/40
f 11/14/41 12/16/42 18/17/43 17/15/44
f 12/16/45 7/6/46 13/9/47 18/17/48
f 13/18/49 14/62/50 20/63/51 19/21/52
f 14/19/53 15/22/54 21/23/55 20/20/56
f 15/22/57 16/24/58 22/25/59 21/23/60
f 16/24/61 17/26/62 23/27/63 22/25/64
f 17/26/65 18/28/66 24/29/67 23/27/68
f 18/28/69 13/18/70 19/21/71 24/29/72
f 19/32/73 20/33/74 26/34/75 25/35/76
f 20/33/77 21/36/78 27/37/79 26/34/80
f 21/36/81 22/38/82 28/39/83 27/37/84
f 22/38/85 23/40/86 29/41/87 28/39/88
f 23/40/89 24/42/90 30/43/91 29/41/92
f 24/42/93 19/32/94 25/35/95 30/43/96
f 25/44/97 26/79/98 32/80/99 31/47/100
f 26/45/101 27/48/102 33/49/103 32/46/104
f 27/48/105 28/73/106 34/74/107 33/49/108
f 28/73/109 29/75/110 35/76/111 34/74/112
f 29/75/113 30/77/114 36/78/115 35/76/116
f 30/77/117 25/44/118 31/47/119 36/78/120
s 1
f 2/50/121 1/58/122 37/59/123
f 3/60/124 2/50/121 37/59/123
f 4/61/125 3/60/124 37/59/123
f 5/31/126 4/61/125 37/59/123
f 6/30/127 5/31/126 37/59/123
f 1/58/122 6/30/127 37/59/123
s 2
f 31/51/128 32/52/129 38/53/130
f 32/52/129 33/54/131 38/53/130
f 33/54/131 34/55/132 38/53/130
f 34/55/132 35/56/133 38/53/130
f 35/56/133 36/57/134 38/53/130
f 36/57/134 31/51/128 38/53/130
