# This file uses centimeters as units for non-parametric coordinates.

mtllib Board.mtl
g default
v 3.380762 0.000000 -0.905872
v 2.474889 0.000000 -2.474889
v 0.905873 0.000000 -3.380762
v -0.905872 0.000000 -3.380762
v -2.474889 0.000000 -2.474889
v -3.380762 0.000000 -0.905873
v -3.380762 0.000000 0.905872
v -2.474889 0.000000 2.474889
v -0.905873 0.000000 3.380762
v 0.905872 0.000000 3.380762
v 2.474889 0.000000 2.474889
v 3.380762 0.000000 0.905873
v 0.000000 0.000000 -0.000000
v 0.000000 0.167695 -0.000000
v 3.380762 0.083856 -0.905872
v 3.369529 0.125775 -0.902862
v 3.338842 0.156462 -0.894640
v 3.296923 0.167695 -0.883408
v 2.474889 0.083856 -2.474889
v 2.466667 0.125775 -2.466667
v 2.444202 0.156462 -2.444202
v 2.413515 0.167695 -2.413515
v 0.905873 0.083856 -3.380762
v 0.902863 0.125775 -3.369529
v 0.894640 0.156462 -3.338842
v 0.883408 0.167695 -3.296923
v -0.905872 0.083856 -3.380762
v -0.902862 0.125775 -3.369529
v -0.894640 0.156462 -3.338842
v -0.883408 0.167695 -3.296923
v -2.474889 0.083856 -2.474889
v -2.466667 0.125775 -2.466667
v -2.444202 0.156462 -2.444202
v -2.413515 0.167695 -2.413515
v -3.380762 0.083856 -0.905873
v -3.369529 0.125775 -0.902863
v -3.338842 0.156462 -0.894640
v -3.296923 0.167695 -0.883408
v -3.380762 0.083856 0.905872
v -3.369529 0.125775 0.902862
v -3.338842 0.156462 0.894640
v -3.296923 0.167695 0.883408
v -2.474889 0.083856 2.474889
v -2.466667 0.125775 2.466667
v -2.444202 0.156462 2.444202
v -2.413515 0.167695 2.413515
v -0.905873 0.083856 3.380762
v -0.902863 0.125775 3.369529
v -0.894640 0.156462 3.338842
v -0.883408 0.167695 3.296923
v 0.905872 0.083856 3.380762
v 0.902862 0.125775 3.369529
v 0.894640 0.156462 3.338842
v 0.883408 0.167695 3.296923
v 2.474889 0.083856 2.474889
v 2.466667 0.125775 2.466667
v 2.444202 0.156462 2.444202
v 2.413515 0.167695 2.413515
v 3.380762 0.083856 0.905873
v 3.369529 0.125775 0.902863
v 3.338842 0.156462 0.894640
v 3.296923 0.167695 0.883408
vt 0.635316 -0.289073
vt 0.578125 -0.346265
vt 0.500000 -0.367198
vt 0.421875 -0.346265
vt 0.364684 -0.289073
vt 0.343750 -0.210948
vt 0.364684 -0.132823
vt 0.421875 -0.075632
vt 0.500000 -0.054698
vt 0.578125 -0.075632
vt 0.635316 -0.132823
vt 0.656250 -0.210948
vt 0.500000 -0.217198
vt 0.029642 0.991293
vt 0.029642 0.994047
vt 0.026826 0.994047
vt 0.026826 0.991293
vt 0.029642 0.996801
vt 0.029643 0.966506
vt 0.026826 0.966506
vt 0.029643 0.969261
vt 0.026826 0.969261
vt 0.029643 0.972015
vt 0.026826 0.972015
vt 0.029643 0.974769
vt 0.026826 0.974769
vt 0.029643 0.977523
vt 0.026826 0.977523
vt 0.029643 0.980277
vt 0.026826 0.980277
vt 0.029643 0.983031
vt 0.026826 0.983031
vt 0.029643 0.985785
vt 0.026826 0.985785
vt 0.029643 0.988539
vt 0.026826 0.988539
vt 0.024387 0.991293
vt 0.024010 0.991293
vt 0.024010 0.988539
vt 0.024387 0.988539
vt 0.025418 0.991293
vt 0.025418 0.988539
vt 0.024387 0.994047
vt 0.024010 0.994047
vt 0.025418 0.994047
vt 0.024010 0.996801
vt 0.500000 0.500000
vt 0.024387 0.966506
vt 0.024010 0.966506
vt 0.025418 0.966506
vt 0.024387 0.969260
vt 0.024010 0.969260
vt 0.025418 0.969260
vt 0.024387 0.972015
vt 0.024010 0.972014
vt 0.025418 0.972015
vt 0.024387 0.974769
vt 0.024010 0.974769
vt 0.025418 0.974769
vt 0.024387 0.977523
vt 0.024010 0.977523
vt 0.025418 0.977523
vt 0.024387 0.980277
vt 0.024010 0.980277
vt 0.025418 0.980277
vt 0.024387 0.983031
vt 0.024010 0.983031
vt 0.025418 0.983031
vt 0.024387 0.985785
vt 0.024010 0.985785
vt 0.025418 0.985785
vt 0.208783 0.208783
vt 0.102190 0.393407
vt 0.102190 0.606593
vt 0.208783 0.791217
vt 0.393407 0.897810
vt 0.606593 0.897810
vt 0.791217 0.791217
vt 0.897810 0.606593
vt 0.897810 0.393407
vt 0.791217 0.208783
vt 0.393407 0.102190
vt 0.606593 0.102190
vt 0.029642 0.999555
vt 0.026826 0.996801
vt 0.024387 0.996801
vt 0.024387 0.999555
vt 0.024010 0.999555
vt 0.025418 0.996801
vt 0.025418 0.999555
vt 0.026826 0.999555
vn 0.032690 -0.998931 -0.032690
vn 0.022346 -0.999732 -0.005987
vn 0.000000 -1.000000 0.000000
vn 0.005987 -0.999732 -0.022346
vn -0.011965 -0.998931 -0.044655
vn -0.016358 -0.999732 -0.016358
vn -0.044655 -0.998931 -0.011965
vn -0.022346 -0.999732 0.005987
vn -0.032690 -0.998931 0.032690
vn -0.005987 -0.999732 0.022346
vn 0.011965 -0.998931 0.044655
vn 0.016358 -0.999732 0.016358
vn 0.044655 -0.998931 0.011965
vn 0.022346 -0.999732 -0.005987
vn 0.032690 -0.998931 -0.032690
vn 0.700402 0.137386 -0.700402
vn 0.956766 0.137387 -0.256365
vn 0.032690 -0.998931 -0.032690
vn 0.005987 -0.999732 -0.022346
vn 0.256365 0.137388 -0.956766
vn 0.700402 0.137386 -0.700402
vn 0.005987 -0.999732 -0.022346
vn -0.011965 -0.998931 -0.044655
vn -0.256365 0.137389 -0.956766
vn 0.256365 0.137388 -0.956766
vn -0.011965 -0.998931 -0.044655
vn -0.016358 -0.999732 -0.016358
vn -0.700402 0.137386 -0.700402
vn -0.256365 0.137389 -0.956766
vn -0.016358 -0.999732 -0.016358
vn -0.044655 -0.998931 -0.011965
vn -0.956767 0.137385 -0.256365
vn -0.700402 0.137386 -0.700402
vn -0.044655 -0.998931 -0.011965
vn -0.022346 -0.999732 0.005987
vn -0.956766 0.137386 0.256365
vn -0.956767 0.137385 -0.256365
vn -0.022346 -0.999732 0.005987
vn -0.032690 -0.998931 0.032690
vn -0.700402 0.137386 0.700402
vn -0.956766 0.137386 0.256365
vn -0.032690 -0.998931 0.032690
vn -0.005987 -0.999732 0.022346
vn -0.256365 0.137388 0.956766
vn -0.700402 0.137386 0.700402
vn -0.005987 -0.999732 0.022346
vn 0.011965 -0.998931 0.044655
vn 0.256365 0.137389 0.956766
vn -0.256365 0.137388 0.956766
vn 0.011965 -0.998931 0.044655
vn 0.016358 -0.999732 0.016358
vn 0.700402 0.137386 0.700402
vn 0.256365 0.137389 0.956766
vn 0.016358 -0.999732 0.016358
vn 0.044655 -0.998931 0.011965
vn 0.956766 0.137386 0.256365
vn 0.700402 0.137386 0.700402
vn 0.044655 -0.998931 0.011965
vn 0.022346 -0.999732 -0.005987
vn 0.956766 0.137387 -0.256365
vn 0.956766 0.137386 0.256365
vn 0.000000 1.000000 0.000000
vn 0.020438 0.999776 -0.005476
vn 0.027646 0.999235 -0.027646
vn 0.005476 0.999776 -0.020438
vn -0.010119 0.999235 -0.037765
vn -0.014961 0.999776 -0.014961
vn -0.037765 0.999235 -0.010119
vn -0.020438 0.999776 0.005476
vn -0.027646 0.999235 0.027646
vn -0.005476 0.999776 0.020438
vn 0.010119 0.999235 0.037765
vn 0.014961 0.999776 0.014961
vn 0.037765 0.999235 0.010119
vn 0.365421 0.925678 -0.097914
vn 0.020438 0.999776 -0.005476
vn 0.037765 0.999235 0.010119
vn 0.365420 0.925679 0.097914
vn 0.807544 0.548682 -0.216381
vn 0.807545 0.548681 0.216381
vn 0.267506 0.925678 -0.267507
vn 0.027646 0.999235 -0.027646
vn 0.591164 0.548680 -0.591164
vn 0.097914 0.925678 -0.365421
vn 0.005476 0.999776 -0.020438
vn 0.216381 0.548681 -0.807545
vn -0.097914 0.925678 -0.365420
vn -0.010119 0.999235 -0.037765
vn -0.216381 0.548681 -0.807545
vn -0.267506 0.925679 -0.267506
vn -0.014961 0.999776 -0.014961
vn -0.591164 0.548680 -0.591164
vn -0.365420 0.925678 -0.097914
vn -0.037765 0.999235 -0.010119
vn -0.807546 0.548679 -0.216381
vn -0.365421 0.925678 0.097914
vn -0.020438 0.999776 0.005476
vn -0.807545 0.548681 0.216381
vn -0.267506 0.925678 0.267507
vn -0.027646 0.999235 0.027646
vn -0.591164 0.548680 0.591164
vn -0.097914 0.925678 0.365421
vn -0.005476 0.999776 0.020438
vn -0.216381 0.548681 0.807545
vn 0.097914 0.925678 0.365420
vn 0.010119 0.999235 0.037765
vn 0.216381 0.548681 0.807545
vn 0.267506 0.925679 0.267506
vn 0.014961 0.999776 0.014961
vn 0.591164 0.548680 0.591164
s 1
g Board
usemtl phong4SG
f 2/2/1 1/1/2 13/13/3 3/3/4
f 4/4/5 3/3/4 13/13/3 5/5/6
f 6/6/7 5/5/6 13/13/3 7/7/8
f 8/8/9 7/7/8 13/13/3 9/9/10
f 10/10/11 9/9/10 13/13/3 11/11/12
f 12/12/13 11/11/12 13/13/3 1/1/2
s 2
f 1/14/14 2/15/15 19/16/16 15/17/17
f 2/15/18 3/18/19 23/85/20 19/16/21
f 3/18/22 4/84/23 27/91/24 23/85/25
f 4/19/26 5/21/27 31/22/28 27/20/29
f 5/21/30 6/23/31 35/24/32 31/22/33
f 6/23/34 7/25/35 39/26/36 35/24/37
f 7/25/38 8/27/39 43/28/40 39/26/41
f 8/27/42 9/29/43 47/30/44 43/28/45
f 9/29/46 10/31/47 51/32/48 47/30/49
f 10/31/50 11/33/51 55/34/52 51/32/53
f 11/33/54 12/35/55 59/36/56 55/34/57
f 12/35/58 1/14/59 15/17/60 59/36/61
s 14
f 14/47/62 18/79/63 22/78/64 26/77/65
f 14/47/62 26/77/65 30/76/66 34/75/67
f 14/47/62 34/75/67 38/74/68 42/73/69
f 14/47/62 42/73/69 46/72/70 50/82/71
f 14/47/62 50/82/71 54/83/72 58/81/73
f 14/47/62 58/81/73 62/80/74 18/79/63
s 2
f 17/37/75 18/38/76 62/39/77 61/40/78
f 15/17/60 16/41/79 60/42/80 59/36/61
f 16/41/79 17/37/75 61/40/78 60/42/80
f 18/38/76 17/37/75 21/43/81 22/44/82
f 17/37/75 16/41/79 20/45/83 21/43/81
f 16/41/79 15/17/17 19/16/16 20/45/83
f 22/44/82 21/43/81 25/86/84 26/46/85
f 21/43/81 20/45/83 24/89/86 25/86/84
f 20/45/83 19/16/21 23/85/20 24/89/86
f 26/46/85 25/86/84 29/87/87 30/88/88
f 25/86/84 24/89/86 28/90/89 29/87/87
f 24/89/86 23/85/25 27/91/24 28/90/89
f 30/49/88 29/48/87 33/51/90 34/52/91
f 29/48/87 28/50/89 32/53/92 33/51/90
f 28/50/89 27/20/29 31/22/28 32/53/92
f 34/52/91 33/51/90 37/54/93 38/55/94
f 33/51/90 32/53/92 36/56/95 37/54/93
f 32/53/92 31/22/33 35/24/32 36/56/95
f 38/55/94 37/54/93 41/57/96 42/58/97
f 37/54/93 36/56/95 40/59/98 41/57/96
f 36/56/95 35/24/37 39/26/36 40/59/98
f 42/58/97 41/57/96 45/60/99 46/61/100
f 41/57/96 40/59/98 44/62/101 45/60/99
f 40/59/98 39/26/41 43/28/40 44/62/101
f 46/61/100 45/60/99 49/63/102 50/64/103
f 45/60/99 44/62/101 48/65/104 49/63/102
f 44/62/101 43/28/45 47/30/44 48/65/104
f 50/64/103 49/63/102 53/66/105 54/67/106
f 49/63/102 48/65/104 52/68/107 53/66/105
f 48/65/104 47/30/49 51/32/48 52/68/107
f 54/67/106 53/66/105 57/69/108 58/70/109
f 53/66/105 52/68/107 56/71/110 57/69/108
f 52/68/107 51/32/53 55/34/52 56/71/110
f 58/70/109 57/69/108 61/40/78 62/39/77
f 57/69/108 56/71/110 60/42/80 61/40/78
f 56/71/110 55/34/57 59/36/56 60/42/80
